# Blender 4.2.1 LTS
# www.blender.org
mtllib GrassV2.mtl
o Plane.001
v -0.237788 1.238606 0.684401
v 0.700192 0.007596 -0.506107
v -0.049808 0.007596 0.792931
v 0.512212 1.238606 -0.614637
v 0.286866 1.238606 0.639664
v -0.751305 0.007596 -0.464564
v 0.109060 0.007596 0.764164
v -0.573499 1.238606 -0.589064
v 0.750000 0.007596 -0.486824
v -0.750000 0.007596 -0.486824
v -0.750000 1.238606 -0.269764
v 0.750000 1.238606 -0.269764
vn 0.8529 0.1736 0.4924
vn -0.0000 0.1736 -0.9848
vn -0.8067 0.1736 0.5649
vt 0.875000 0.250000
vt 0.125000 0.875000
vt 0.125000 0.250000
vt 0.875000 0.875000
vt 0.125000 0.250000
vt 0.125000 0.875000
vt 0.125000 0.250000
vt 0.875000 0.250000
s 0
usemtl Material
f 2/1/1 1/2/1 3/3/1
f 10/1/2 11/4/2 9/5/2
f 9/5/2 11/4/2 12/6/2
f 1/2/1 2/1/1 4/4/1
f 7/7/3 8/4/3 6/8/3
f 7/7/3 5/6/3 8/4/3
